# xmcd
#
# Track frame offsets:
#	150
#	34117
#	64875
#	92353
#	120018
#	150760
#	181286
#	210646
#	237310
#	266511
#
# Disc length: 3906 seconds
#
# Revision: 2
# Processed by: cddbd v1.5.2PL0 Copyright (c) Steve Scherf et al.
# Submitted via: EasyCDDAExtractor 2010.6.0.0
#
DISCID=710f400a
DTITLE=Various Artist - Dance Classics Vol. 25 and 26
DYEAR=2009
DGENRE=Dance
TTITLE0=Billy Ocean - When The Going Get's Tough, The Tough Get Going (12'')
TTITLE1=Colonel Abrams - I'm Not Gonna Let You (12'')
TTITLE2=Five Star - Let Me Be The One (Philadelphia Remix)
TTITLE3=Jellybean - Sidewalk Talk (12'')
TTITLE4=Fox The Fox - Precious Little Diamond (Shep Pettibone Mix)
TTITLE5=E.G. Daily - Say It Say It (12'')
TTITLE6=Aretha Franklin - Freeway Of Love (12'')
TTITLE7=Jermaine Stewart - We Don't Have To Take Our Clothes Off (12'')
TTITLE8=Moses - We Just (12'')
TTITLE9=King Mc - What Have I Done For You Lately (12'')
EXTD=
EXTT0=
EXTT1=
EXTT2=
EXTT3=
EXTT4=
EXTT5=
EXTT6=
EXTT7=
EXTT8=
EXTT9=
PLAYORDER=
